<?xml version="1.0" standalone="no"?>
<!DOCTYPE svg PUBLIC "-//W3C//DTD SVG 20010904//EN"
 "http://www.w3.org/TR/2001/REC-SVG-20010904/DTD/svg10.dtd">
<svg version="1.0" xmlns="http://www.w3.org/2000/svg"
 width="540.000000pt" height="540.000000pt" viewBox="0 0 540.000000 540.000000"
 preserveAspectRatio="xMidYMid meet">

<g transform="translate(0.000000,540.000000) scale(0.100000,-0.100000)"
fill="#000000" stroke="none">
<path d="M1358 4697 c-168 -58 -297 -202 -333 -374 -22 -101 -22 -3145 0
-3246 37 -177 173 -324 349 -380 l71 -22 795 0 795 0 3 168 2 167 -767 0
c-473 0 -782 4 -803 10 -41 11 -94 61 -109 103 -15 40 -15 3114 0 3154 15 42
68 92 109 103 48 13 2412 13 2460 0 41 -11 94 -61 109 -103 8 -19 11 -331 11
-973 l0 -944 170 0 170 0 0 943 c0 630 -4 963 -11 1003 -14 77 -67 188 -119
246 -55 63 -148 124 -227 148 -64 20 -91 20 -1337 20 l-1271 -1 -67 -22z"/>
<path d="M2284 4041 c-94 -24 -179 -93 -225 -183 -30 -57 -38 -187 -16 -252
36 -104 117 -182 226 -217 46 -15 51 -18 26 -19 -153 -3 -362 -120 -466 -260
-81 -108 -139 -262 -139 -367 l0 -43 676 0 676 0 -7 58 c-20 170 -82 299 -200
418 -63 64 -98 89 -165 122 -87 43 -180 71 -235 73 -26 0 -24 2 20 18 101 34
178 101 217 189 33 73 31 199 -3 273 -54 115 -163 189 -288 195 -36 2 -80 0
-97 -5z"/>
<path d="M3380 3540 l0 -170 165 0 165 0 0 170 0 170 -165 0 -165 0 0 -170z"/>
<path d="M3380 2870 l0 -170 165 0 165 0 0 170 0 170 -165 0 -165 0 0 -170z"/>
<path d="M1690 2190 l0 -170 1010 0 1010 0 0 170 0 170 -1010 0 -1010 0 0
-170z"/>
<path d="M4050 1515 l0 -505 -337 0 -338 0 423 -422 422 -423 422 423 423 422
-338 0 -337 0 0 505 0 505 -170 0 -170 0 0 -505z"/>
<path d="M1690 1520 l0 -170 1010 0 1010 0 0 170 0 170 -1010 0 -1010 0 0
-170z"/>
</g>
</svg>
